<?xml version="1.0" encoding="UTF-8" standalone="no"?>
<svg
   xmlns:dc="http://purl.org/dc/elements/1.1/"
   xmlns:cc="http://creativecommons.org/ns#"
   xmlns:rdf="http://www.w3.org/1999/02/22-rdf-syntax-ns#"
   xmlns:svg="http://www.w3.org/2000/svg"
   xmlns="http://www.w3.org/2000/svg"
   xmlns:sodipodi="http://sodipodi.sourceforge.net/DTD/sodipodi-0.dtd"
   xmlns:inkscape="http://www.inkscape.org/namespaces/inkscape"
   width="60mm"
   height="60mm"
   viewBox="0 0 60 60"
   version="1.1"
   id="svg8"
   inkscape:version="1.0.2-2 (e86c870879, 2021-01-15)"
   sodipodi:docname="CookBook_fg.svg">
  <defs
     id="defs2" />
  <sodipodi:namedview
     id="base"
     pagecolor="#ffffff"
     bordercolor="#666666"
     borderopacity="1.0"
     inkscape:pageopacity="0.0"
     inkscape:pageshadow="2"
     inkscape:zoom="4.2227874"
     inkscape:cx="39.634219"
     inkscape:cy="144.14448"
     inkscape:document-units="mm"
     inkscape:current-layer="layer2"
     inkscape:document-rotation="0"
     showgrid="false"
     inkscape:window-width="2560"
     inkscape:window-height="1017"
     inkscape:window-x="-8"
     inkscape:window-y="-8"
     inkscape:window-maximized="1" />
  <metadata
     id="metadata5">
    <rdf:RDF>
      <cc:Work
         rdf:about="">
        <dc:format>image/svg+xml</dc:format>
        <dc:type
           rdf:resource="http://purl.org/dc/dcmitype/StillImage" />
        <dc:title />
      </cc:Work>
    </rdf:RDF>
  </metadata>
  <g
     inkscape:groupmode="layer"
     id="layer2"
     inkscape:label="Calque 2"
     style="display:inline;opacity:1">
    <path
       style="opacity:1;fill:#621a4c;fill-opacity:1;stroke:#000000;stroke-width:0.264583px;stroke-linecap:butt;stroke-linejoin:miter;stroke-opacity:1"
       d="m 54.577175,39.364957 -2.40193,-0.533763 -2.268487,-0.400322 -1.868167,-0.667203 -2.40193,1.868167 -3.336015,1.467845 -3.202572,1.334408 -3.469452,1.467845 -2.13505,0.13344 -0.800642,-1.467845 -0.13344,-2.26849 0.533762,-1.601285 0.53376,-2.00161 -2.93569,0.400323 -2.802252,0.533762 -3.469453,2.53537 -2.40193,2.80225 -4.803859,5.471062 -3.069132,3.069132 -1.067524,0.800645 -0.800644,-1.200965 -2.4019289,1.868167 5.0707399,0.13344 38.374959,-0.05974 1.113827,-0.315405 0.23947,-1.105374 z"
       id="path850"
       sodipodi:nodetypes="ccccccccccccccccccccccccccc" />
    <path
       style="fill:none;stroke:#989595;stroke-width:0.264583px;stroke-linecap:butt;stroke-linejoin:miter;stroke-opacity:1"
       d="m 17.271668,20.868082 1.288254,-2.272122 0.973044,-2.99121 0.144155,-1.910051 -0.108116,-1.837973 -0.900968,-0.720773 -1.585701,-0.07208 -0.864929,1.009083 -0.756812,1.36947 -0.28831,1.982127 0.180194,2.774979 0.675984,2.446546 v 0"
       id="path1734" />
    <path
       style="fill:none;fill-opacity:1;stroke:#989595;stroke-width:0.264583px;stroke-linecap:butt;stroke-linejoin:miter;stroke-opacity:1"
       d="m 16.028463,20.646081 -0.567868,-1.509541 -0.707109,-2.638966 -0.374052,-1.973985 0.216232,-1.333431 0.28831,-0.396426 0.504542,-0.360386 0.828889,-0.360387 0.973044,0.144154 1.153239,1.333432 0.180193,1.333431 -0.360387,2.414592 -0.468503,2.234398 -0.423325,1.335116 -0.754803,-0.222001"
       id="path1732" />
    <path
       style="fill:#989595;fill-opacity:1;stroke:#000000;stroke-width:0.264583px;stroke-linecap:butt;stroke-linejoin:miter;stroke-opacity:1"
       d="m 14.252456,39.160955 h -0.843603 l -0.270756,-0.07255 -0.272349,-0.272349 0.189789,-0.708305 0.708518,-6.317226 0.710402,-5.860824 1.154405,-4.395617 -0.310801,-0.355201 v -0.399602 l 0.710402,-0.1332 h 0.488402 l 0.754803,0.222001 v 0.488401 l 0.133201,0.355202 -0.133201,0.266401 -0.1332,0.222001 -0.532802,2.61961 -0.577203,2.752811 -0.266401,2.442009 -1.065604,5.150422 -0.550098,2.240158 v 0 z"
       id="path1724" />
    <path
       style="opacity:1;fill:#fae4cc;fill-opacity:1;stroke:#000000;stroke-width:0.264583px;stroke-linecap:butt;stroke-linejoin:miter;stroke-opacity:1"
       d="m 11.766047,42.357767 0.765475,-1.325843 0.279921,-1.044678 v -1.492295 l 0.540901,-2.01867 0.423365,-0.11344 -0.47147,0.81661 0.842121,0.225647 0.795726,-0.795727 0.333001,-0.333001 0.666003,-0.666002 0.377449,-0.653761 v -1.301274 l 0.23826,-0.889201 0.270557,-0.468617 0.40905,-0.409051 -0.125794,-0.469469 -0.401167,-0.231616 -0.432373,0.249632 h -0.381809 l -0.447981,-0.120036 -0.399277,-0.230524 -1.058995,-0.283755 -0.635463,-0.170273 -0.214398,-0.123782 0.692715,-0.692714 0.466201,-0.466201 1.051871,-0.28185 1.320479,-0.353819 0.499279,-0.288261 c 0,0 0.313232,0.07973 0.39583,-0.228531 0.0826,-0.308261 0.242607,-0.675595 -0.181025,-0.675595 -0.423632,0 -0.733472,-0.402032 -0.976582,-0.261673 -0.243108,0.140358 -1.332434,0.357023 -1.332434,0.357023 l -1.071922,0.287221 c 0,0 -0.665111,0.0098 -0.895119,0.239848 -0.230008,0.230007 0.102993,-0.102995 -0.385409,0.385408 -0.488401,0.488402 -1.354205,1.354203 -1.354205,1.354203 0,0 -0.628492,0.422267 -0.910204,0.910204 -0.281711,0.487939 -0.598247,0.498568 -0.598247,1.036196 0,0.537628 -0.3078901,1.149061 -0.3078901,1.149061 l -0.2850435,1.063797 -0.2309236,0.861819 -0.3990181,1.489155 -0.1776008,0.662815 v 2.015408 2.086809 1.598406 l -0.5122696,3.729614 -0.266401,2.66401 -0.3108013,2.930412 c 0,0 -0.083649,0.04302 0,0.3552 0.083649,0.312182 0.1332005,0.532805 0.1332005,0.532805 v 0.0888 l 2.3709694,-0.08232 1.7037671,-1.259766 0.09888,-2.47633 -0.0444,-2.131208 -0.0444,-2.220008 0.177601,-1.198806 z"
       id="path1722"
       sodipodi:nodetypes="ccccccccccccccccccccccccccccccssscccscsscccccccccccsccccccccc" />
    <path
       style="fill:none;stroke:#989595;stroke-width:0.264583px;stroke-linecap:butt;stroke-linejoin:miter;stroke-opacity:1"
       d="m 17.271668,20.868082 1.900911,-2.848741 0.612658,-1.657779 -0.108116,-2.666863 -0.864928,-0.864928 -2.199434,-0.589337 -2.485595,0.373105 -0.28831,0.684735 -0.144155,1.874011 1.058787,1.325289 1.274977,4.148504 v 0"
       id="path1736" />
    <path
       style="opacity:1;fill:#fae4cc;fill-opacity:1;stroke:#dec3a5;stroke-width:0.264583px;stroke-linecap:butt;stroke-linejoin:miter;stroke-opacity:1"
       d="m 48.038591,37.763669 -1.244182,-0.61405 -0.554699,-0.879457 -1.025853,-1.387067 0.268332,-1.207492 0.46958,-2.54915 1.475822,-6.77537 1.207492,-0.872077 1.138232,-1.461319 0.667206,-2.001608 0.0058,-2.574532 0.12764,-1.695565 -1.200965,-1.067524 -1.868167,-0.800643 -2.668812,0.266881 -2.53537,1.067524 -3.39258,0.820587 -3.146004,0.380378 h -3.336015 v 0 l -3.043748,-0.715793 -0.46958,2.213735 -0.20125,3.421227 1.006245,2.280818 1.475822,3.085813 0.536662,1.274574 1.475825,1.744155 1.475822,1.609987 0.469579,0.335415 0.536665,0.804995 0.201248,2.012486 -0.872078,1.677072 -1.390247,0.538475 -0.488072,1.339845 -0.579451,2.26305 v 0 l 0.13344,2.26849 0.800643,1.467845 v 0 l 2.13505,-0.13344 v 0 l 10.008039,-4.270098 z"
       id="path1738" />
    <path
       style="fill:none;stroke:#d8be9e;stroke-width:0.264583px;stroke-linecap:butt;stroke-linejoin:miter;stroke-opacity:1"
       d="m 42.543481,29.76164 -1.190464,0.751874 -1.378434,1.065152 -1.253122,0.81453 -0.814531,0.187968 h -1.002495 l -0.814531,-0.438592 -0.626559,-0.438594"
       id="path1742" />
    <path
       style="fill:none;stroke:#dbc0a0;stroke-width:0.264583px;stroke-linecap:butt;stroke-linejoin:miter;stroke-opacity:1"
       d="m 35.275377,17.731672 0.814527,1.315778 0.06266,1.065153 0.06266,1.002498 -0.563903,1.253121 -0.125312,0.375937 0.313279,0.626561 0.626563,0.626561 h -0.06266"
       id="path1744" />
    <path
       style="fill:none;stroke:#dbc0a0;stroke-width:0.264583px;stroke-linecap:butt;stroke-linejoin:miter;stroke-opacity:1"
       d="m 36.340528,25.438371 0.501251,-0.187969 0.563904,0.187969 v -0.06266"
       id="path1746" />
    <path
       style="fill:none;stroke:#dbc0a0;stroke-width:0.264583px;stroke-linecap:butt;stroke-linejoin:miter;stroke-opacity:1"
       d="m 39.473333,24.999778 0.689218,0.939841 0.31328,0.751873 -0.125312,0.438592 -0.187968,0.375938"
       id="path1748" />
    <path
       style="fill:none;stroke:#dbc0a0;stroke-width:0.264583px;stroke-linecap:butt;stroke-linejoin:miter;stroke-opacity:1"
       d="m 42.167545,26.315556 -0.187968,0.501248 -0.375936,0.626562"
       id="path1750" />
    <path
       style="fill:none;stroke:#dbc0a0;stroke-width:0.264583px;stroke-linecap:butt;stroke-linejoin:miter;stroke-opacity:1"
       d="M 34.586158,28.508518 34.147566,28.00727 33.771631,27.506022 34.272878,26.56618 34.460846,25.751651"
       id="path1756" />
    <path
       style="fill:none;stroke:#000000;stroke-width:0.264583px;stroke-linecap:butt;stroke-linejoin:miter;stroke-opacity:1"
       d="M 33.771631,27.506022 Z"
       id="path1758" />
    <path
       style="fill:none;stroke:#dbc0a0;stroke-width:0.264583px;stroke-linecap:butt;stroke-linejoin:miter;stroke-opacity:1"
       d="M 33.771631,27.506022 32.64382,26.942116 v 0"
       id="path1760" />
    <path
       style="fill:none;stroke:#dbc0a0;stroke-width:0.264583px;stroke-linecap:butt;stroke-linejoin:miter;stroke-opacity:1"
       d="m 36.779123,29.009768 0.563904,-0.250624 0.563903,0.31328 -0.06266,0.31328 -0.313279,0.250624 -0.563904,0.125312 v 0"
       id="path1762" />
    <path
       style="fill:#fffffc;fill-opacity:1;stroke:#ffffff;stroke-width:0.123594px;stroke-linecap:butt;stroke-linejoin:miter;stroke-opacity:1"
       d="m 35.260232,26.622928 3.518147,-0.321409 0.373137,0.03214 -0.02665,0.35355 -0.293178,0.771384 -0.959495,0.771384 -1.465894,0.03214 -0.586362,-0.449974 -0.319831,-0.674961 z"
       id="path1764" />
    <path
       style="fill:#8d8171;fill-opacity:1;stroke:#8d8171;stroke-width:0.130885px;stroke-linecap:butt;stroke-linejoin:miter;stroke-opacity:1"
       d="m 43.183305,18.381652 -0.999201,-0.44419 -0.454182,-0.126912 -0.696414,-0.158639 -1.090037,0.126912 -0.756971,0.126911 -0.696413,0.317279 -0.09084,0.380734 -0.03028,0.317278 0.393625,0.09518 0.454182,-0.349007 0.666135,-0.412461 h 1.332268 l 0.908365,0.190367 0.938644,0.444189 0.151394,0.09518 z"
       id="path1812-7" />
    <path
       style="fill:#f3a07e;fill-opacity:1;stroke:#f3a07e;stroke-width:0.130885px;stroke-linecap:butt;stroke-linejoin:miter;stroke-opacity:1"
       d="m 35.310809,18.730658 -1.150595,-0.729741 -0.78725,-0.190367 -1.483662,0.03173 h -0.514741 l -0.635856,0.222095 -0.635855,0.253823 -0.938644,0.634558 -0.423904,0.475917 -0.06056,0.44419 0.181674,0.920108 0.726692,1.142202 0.696413,0.666285 0.968922,0.539374 0.666135,0.126911 1.635056,-0.190366 0.817528,-0.412463 0.756971,-0.951836 0.211952,-1.110474 -0.484461,-0.06346 -0.06056,0.412461 -1.150596,1.459482 -0.999201,0.380733 -1.120318,-0.126911 -0.938644,-0.444189 -0.545019,-0.412463 -0.302788,-0.60283 -0.242231,-0.507645 -0.313725,-0.569393 V 19.84113 l 0.430947,-0.782143 1.132657,-0.685234 h 1.778005 1.301989 l 1.007861,0.609734 v 0.413453 1.047019 l 0.510028,0.143202 0.497631,-0.13972 0.693152,-0.194618 0.435452,0.263439 0.196115,0.766938 0.59601,0.93752 0.726692,0.444189 1.301989,0.380735 c 0,0 1.02948,-0.03173 1.150596,-0.126911 0.121115,-0.09519 1.090038,-0.444191 1.090038,-0.444191 l 0.605576,-0.793197 0.696413,-1.173931 0.243861,-0.953654 0.254401,-0.994873 -0.07436,-0.494517 -0.817528,-0.475918 -1.453384,-0.412462 H 40.972951 40.094864 39.1865 l -0.744112,0.208926 -0.653819,0.183574 -0.544296,0.329289 -0.175588,0.106227 -0.179565,0.702215 v 0.944541 l -0.06487,0.253684 h 0.54552 v -0.919968 l 0.283447,-0.514438 0.445472,-0.466792 0.942372,-0.264591 h 1.205197 1.635057 l 0.45605,0.128046 0.655038,0.396284 0.182997,0.33213 0.114649,0.44835 -0.221685,0.402346 -0.168942,0.660672 -0.572396,1.038863 -0.501881,0.910884 -1.377197,0.386679 h -0.988939 l -0.846054,-0.237548 -0.689962,-0.722982 -0.37021,-0.671908 -0.137552,-0.537918 V 19.904584 H 36.764193 L 36.354488,19.65672 h -0.589496 l -0.267475,0.161817 -0.140203,-0.254458 z"
       id="path1816-0" />
    <path
       style="fill:#8d8171;fill-opacity:1;stroke:#8d8171;stroke-width:0.130885px;stroke-linecap:butt;stroke-linejoin:miter;stroke-opacity:1"
       d="m 42.54745,20.507417 -0.666135,0.15864 -0.75697,0.06346 -0.726692,-0.03173 -0.514741,-0.190368 -0.545018,-0.222094 h -0.211952 l -0.03028,0.285551 0.51474,0.190367 1.029481,0.253822 0.787249,0.03173 0.575298,-0.06345 0.302788,-0.126912 0.27251,-0.06346 z"
       id="path1814-9" />
    <ellipse
       style="fill:#8aadc3;fill-opacity:1;stroke:#91adbd;stroke-width:0.0926768;stroke-opacity:1"
       id="path1790-6"
       cx="32.843086"
       cy="20.332914"
       rx="1.1082351"
       ry="1.1295431" />
    <path
       style="fill:#8d8171;fill-opacity:1;stroke:#8d8272;stroke-width:0.130885px;stroke-linecap:butt;stroke-linejoin:miter;stroke-opacity:1"
       d="m 34.584117,19.047937 -0.878086,-0.253823 -0.726692,-0.09518 -0.847807,0.06346 -0.545019,0.158639 -0.847808,0.126912 -0.605576,0.222095 -0.242231,0.158639 -0.242229,0.222094 0.393623,0.60283 0.484462,0.571101 0.423903,0.412462 1.029481,0.475918 0.908365,0.126911 1.02948,-0.06346 0.302789,-0.126911 0.03028,-0.190367 -0.393625,0.06346 -0.635856,0.126911 -0.666133,-0.06346 -0.666134,-0.190366 -0.726692,-0.253824 -0.605577,-0.602828 -0.211951,-0.698014 1.180873,-0.475918 0.938643,-0.158639 h 1.090039 l 1.090038,0.444189 0.151394,0.190368 z"
       id="path1786-4" />
    <ellipse
       style="display:inline;fill:#8aadc3;fill-opacity:1;stroke:#91adbd;stroke-width:0.102539;stroke-opacity:1"
       id="path1790-3-6"
       cx="41.033508"
       cy="19.492126"
       rx="1.2245333"
       ry="1.2514069" />
    <path
       style="opacity:0.419872;fill:#efefed;fill-opacity:1;stroke:#efefed;stroke-width:0.130885px;stroke-linecap:butt;stroke-linejoin:miter;stroke-opacity:1"
       d="m 38.368971,20.507417 -0.445978,0.974969 0.689962,0.722981 0.846054,0.237548 v 0 l 0.484462,-1.047116 1.877287,-2.252678 0.302786,-0.698013 -0.908365,-0.190367 -0.72669,0.09518 -0.999201,0.951836 z"
       id="path1820-5" />
    <path
       style="opacity:0.288889;fill:#efefed;fill-opacity:1;stroke:#efefed;stroke-width:0.130885px;stroke-linecap:butt;stroke-linejoin:miter;stroke-opacity:1"
       d="m 30.042292,21.808261 0.484462,-0.983565 0.454182,-1.01529 c 0,0 1.150596,-1.04702 1.150596,-1.04702 l 1.190578,-0.334282 0.23253,0.778472 -0.514743,0.761469 -1.059759,1.745031 -1.392827,0.507648 z"
       id="path1818-3" />
    <g
       id="g1922"
       transform="matrix(0.48352243,0,0,0.4868526,53.065843,9.194933)"
       style="display:inline">
      <path
         style="fill:#efefed;fill-opacity:1;stroke:#efefed;stroke-width:0.264583px;stroke-linecap:butt;stroke-linejoin:miter;stroke-opacity:1"
         d="m -53.967562,11.608786 2.304034,0.79755 1.860952,0.708933 1.329248,0.354467 1.417868,0.443084 -1.329251,2.481267 -0.354465,3.1902 0.265848,3.456051 v 2.39265 l 0.265851,3.101583 1.683718,6.46902 0.79755,1.683716 2.038183,4.342217 0.797549,3.367434 -0.08862,2.481268 -1.152017,3.456051 -0.79755,2.747119 0.79755,-3.899136 0.26585,-3.633285 -1.0634,-4.430834 -1.240634,-2.481268 0.797552,3.278818 0.708933,3.278819 -0.177234,1.683716 -0.974783,2.835736 -1.772333,3.544665 -1.152017,1.0634 -1.772335,0.708935 -0.886166,0.265851 1.595101,-1.506485 0.974783,-2.392651 0.443082,-2.392651 -0.265848,-3.633284 -2.392651,-3.721899 -1.152017,-2.304034 -0.708935,-2.126801 v 2.92435 l 1.152017,3.899135 1.329251,2.126801 0.797549,1.417865 v 0.354467 l -1.417865,-1.0634 -2.924352,-3.544668 -1.506482,-2.481267 -0.886169,-3.98775 -0.265848,-4.430834 0.177234,-6.025935 0.443082,-4.696684 0.443084,-5.937318 z"
         id="path1916" />
      <path
         style="fill:#efefed;fill-opacity:1;stroke:#efefed;stroke-width:0.264583px;stroke-linecap:butt;stroke-linejoin:miter;stroke-opacity:1"
         d="m -23.683609,12.111813 3.008667,-0.617162 2.237214,-0.848599 3.934411,-0.8485982 2.005778,-0.077145 1.928632,0.2314358 1.4657609,0.6943074 1.465761,0.617162 1.542906,1.234325 0.3085812,1.15718 0.231436,3.240103 v 3.317248 l -2.237214,0.07714 -0.1542904,-2.160068 -1.0028891,-1.620052 -0.9257437,-0.308581 -1.5429059,0.07715 c 0,0 -0.385727,0.771453 -0.385727,1.080035 0,0.308581 0.385727,2.005777 0.385727,2.005777 l -0.231436,4.088702 -0.07714,2.545795 0.694307,0.848599 0.925744,-0.694308 1.6971968,-1.311471 0.540017,-2.237214 v -1.774342 l 0.077145,-0.540017 2.3143594,-0.07714 -0.2314361,2.62294 -0.771453,2.777231 -0.1542907,0.925745 -1.1571796,1.620051 -0.5400169,0.694307 1.1571795,2.46865 1.7743419,3.702976 c 0,0 0.077145,2.082921 0.077145,2.391502 0,0.308581 -0.4628718,2.700086 -0.4628718,2.700086 0,0 -0.7714531,1.311471 -0.7714531,1.620052 0,0.308581 -0.3857265,1.234326 -0.3857265,1.234326 v 1.928633 l -0.5400172,1.697196 -0.540017,1.157179 v -1.542907 -1.542905 l -0.3085811,-1.157181 -1.0800345,1.157181 -1.0800341,2.005778 -0.771453,3.008667 v 2.314358 l 1.3886153,3.162958 -3.6258293,-3.162958 -2.854377,-2.93152 -1.234325,-2.545797 -1.002888,-3.008667 -0.07715,-2.854375 -0.540017,0.231436 -0.231436,2.46865 0.154291,2.314358 0.694308,2.391505 -1.542906,-3.702973 -0.07715,-2.931523 0.385727,-1.620052 0.540017,-1.851488 0.308581,0.07715 -0.154291,1.157179 0.771453,-1.620052 1.234325,-2.160069 -0.771453,0.771454 -1.157179,1.620051 -0.308581,0.154289 1.774341,-3.162956 1.697197,-2.545797 0.617163,-3.317248 -0.154291,-2.391502 -0.617162,-1.157181 -2.777232,-2.854376 -1.080034,-2.314359 -3.008667,-4.9373 z"
         id="path1918" />
    </g>
    <path
       style="fill:#325c21;fill-opacity:1;stroke:#000000;stroke-width:0.264583px;stroke-linecap:butt;stroke-linejoin:miter;stroke-opacity:1"
       d="m 35.628622,4.5369778 2.401927,-0.1334404 2.668812,-0.1334405 2.135048,0.4003217 2.001607,0.9340837 1.200965,0.1334404 2.26849,2.1350483 1.868167,2.40193 0.800642,1.467845 -0.26688,3.069132 1.200965,1.868168 1.467845,1.734727 0.667203,1.467845 -0.26688,1.200965 -1.868168,1.067525 -2.13505,-0.133441 0.667206,-2.001608 0.13344,-2.135048 v -1.601287 -0.533762 l -1.200965,-1.067524 -1.868168,-0.800643 -2.668812,0.266881 -2.53537,1.067524 -3.469452,0.667203 -3.069132,0.533762 h -3.336015 l -3.336012,-0.800643 -1.868167,-0.533762 -0.26688,-0.400322 -0.533764,1.200965 -0.400321,2.53537 -0.133441,2.401929 0.133441,0.800644 -2.802251,-1.601287 -0.800644,-1.067524 -0.667202,-1.067524 0.266881,-1.200965 1.334405,-0.934084 2.268489,-1.334405 1.467847,-0.400321 0.400319,-0.266882 0.133443,-0.934083 0.26688,-0.667203 0.934085,-1.067524 0.26688,-2.0016081 0.26688,-1.6012863 2.535372,-2.53537 2.135047,-0.4003218 z"
       id="path848" />
    <path
       style="opacity:1;fill:#9e542a;fill-opacity:1;stroke:#000000;stroke-width:0.264583px;stroke-linecap:butt;stroke-linejoin:miter;stroke-opacity:1"
       d="m 49.906758,38.430872 -1.868167,-0.667203 v 0 l -2.40193,1.868167 -3.004979,1.195832 -2.563598,1.139378 -4.439462,1.934888 -2.13505,0.13344 v 0 l -0.800642,-1.467845 -0.13344,-2.26849 1.067522,-3.602895 -2.673943,0.04876 -0.949481,1.804013 -0.854532,1.898963 -0.949479,2.468649 -0.664639,2.183805 -0.569687,2.373701 -0.09495,1.709066 1.04443,0.379793 0.664636,-1.424223 0.379793,-2.943389 0.854533,-2.563598 1.436029,-2.487274 v 2.772119 l 0.553222,2.064663 0.688541,1.192588 1.743676,-0.467217 3.0548,-0.818531 4.297291,-1.876554 3.702976,-1.139378 1.851488,-1.851488 0.535556,-0.309205 v 1.685954 l -0.488085,2.468649 -0.664636,1.993908 -0.37979,0.854533 -0.09495,2.088859 2.46865,-0.664639 0.569688,-1.234323 -0.09495,-1.139378 0.949481,-2.943389 V 40.82767 Z"
       id="path852" />
    <path
       style="opacity:1;fill:#3060da;fill-opacity:1;stroke:#000000;stroke-width:0.264583px;stroke-linecap:butt;stroke-linejoin:miter;stroke-opacity:1"
       d="m 48.038591,37.840284 -1.798881,-1.493507 -1.804014,0.47474 -1.614117,0.854532 -2.088859,1.234327 -2.373701,2.278753 -1.36016,2.355868 -2.237975,3.876283 v 0.509162 l -2.673221,-0.716288 -4.696856,-1.25852 0.80877,-2.962492 1.595826,-2.764054 2.994729,-2.994729 0.56969,-0.569687 h -2.406753 l -3.401605,3.401605 -1.250849,2.262229 -0.854533,2.088857 -0.189896,0.759584 -1.139377,0.284845 -0.47474,1.044427 -0.854533,1.993911 -0.854532,2.278753 -0.379793,2.278753 16.426017,0.09495 0.189894,-3.418131 v -1.329272 l -0.59172,-0.34163 h -0.927449 l -0.187338,-0.324482 1.194427,-2.068809 1.554713,-2.692844 1.189347,-2.060007 2.804819,-1.619363 3.588488,-2.071815 0.398304,-0.106725"
       id="path854" />
    <g
       id="g1706"
       style="fill:#edca33;fill-opacity:1"
       transform="translate(-0.12426089,-0.16568119)">
      <ellipse
         style="opacity:1;fill:#edca33;fill-opacity:1;stroke:none;stroke-width:0.2;stroke-opacity:0.923077"
         id="path856"
         cx="33.827915"
         cy="37.036713"
         rx="0.46809256"
         ry="0.44865656" />
      <ellipse
         style="fill:#edca33;fill-opacity:1;stroke:none;stroke-width:0.2;stroke-opacity:0.923077"
         id="path856-2"
         cx="32.432095"
         cy="38.272354"
         rx="0.46809256"
         ry="0.44865656" />
      <ellipse
         style="fill:#edca33;fill-opacity:1;stroke:none;stroke-width:0.2;stroke-opacity:0.923077"
         id="path856-2-8"
         cx="33.094818"
         cy="37.609631"
         rx="0.46809256"
         ry="0.44865656" />
      <ellipse
         style="fill:#edca33;fill-opacity:1;stroke:none;stroke-width:0.2;stroke-opacity:0.923077"
         id="path856-2-8-3"
         cx="30.858122"
         cy="40.301949"
         rx="0.46809256"
         ry="0.44865656" />
      <ellipse
         style="fill:#edca33;fill-opacity:1;stroke:none;stroke-width:0.2;stroke-opacity:0.923077"
         id="path856-2-8-3-1"
         cx="31.313747"
         cy="39.556385"
         rx="0.46809256"
         ry="0.44865656" />
      <ellipse
         style="fill:#edca33;fill-opacity:1;stroke:none;stroke-width:0.2;stroke-opacity:0.923077"
         id="path856-2-8-3-5"
         cx="31.893631"
         cy="38.935081"
         rx="0.46809256"
         ry="0.44865656" />
      <ellipse
         style="fill:#edca33;fill-opacity:1;stroke:none;stroke-width:0.2;stroke-opacity:0.923077"
         id="path856-2-8-3-2"
         cx="30.485338"
         cy="41.130356"
         rx="0.46809256"
         ry="0.44865656" />
      <ellipse
         style="fill:#edca33;fill-opacity:1;stroke:none;stroke-width:0.2;stroke-opacity:0.923077"
         id="path856-2-8-3-2-8"
         cx="30.195398"
         cy="41.958763"
         rx="0.46809256"
         ry="0.44865656" />
      <ellipse
         style="fill:#edca33;fill-opacity:1;stroke:none;stroke-width:0.2;stroke-opacity:0.923077"
         id="path856-2-8-3-2-8-0"
         cx="29.822617"
         cy="42.78717"
         rx="0.46809256"
         ry="0.44865656" />
      <ellipse
         style="fill:#edca33;fill-opacity:1;stroke:none;stroke-width:0.2;stroke-opacity:0.923077"
         id="path856-2-8-3-2-8-0-2"
         cx="29.449833"
         cy="43.49131"
         rx="0.46809256"
         ry="0.44865656" />
      <ellipse
         style="fill:#edca33;fill-opacity:1;stroke:none;stroke-width:0.2;stroke-opacity:0.923077"
         id="path856-2-8-3-2-8-0-2-4"
         cx="29.118469"
         cy="44.361141"
         rx="0.46809256"
         ry="0.44865656" />
      <ellipse
         style="fill:#edca33;fill-opacity:1;stroke:none;stroke-width:0.2;stroke-opacity:0.923077"
         id="path856-2-8-3-2-8-0-2-4-4"
         cx="28.911369"
         cy="45.230968"
         rx="0.46809256"
         ry="0.44865656" />
      <ellipse
         style="fill:#edca33;fill-opacity:1;stroke:none;stroke-width:0.2;stroke-opacity:0.923077"
         id="path856-2-8-3-2-8-0-2-4-4-5"
         cx="28.704266"
         cy="46.059372"
         rx="0.46809256"
         ry="0.44865656" />
      <ellipse
         style="fill:#edca33;fill-opacity:1;stroke:none;stroke-width:0.2;stroke-opacity:0.923077"
         id="path856-2-8-3-2-8-0-2-4-4-5-8"
         cx="28.662846"
         cy="46.970619"
         rx="0.46809256"
         ry="0.44865656" />
      <ellipse
         style="fill:#edca33;fill-opacity:1;stroke:none;stroke-width:0.2;stroke-opacity:0.923077"
         id="path856-2-8-3-2-8-0-2-4-4-5-8-6"
         cx="28.828529"
         cy="47.799026"
         rx="0.46809256"
         ry="0.44865656" />
      <ellipse
         style="fill:#edca33;fill-opacity:1;stroke:none;stroke-width:0.2;stroke-opacity:0.923077"
         id="path856-2-8-3-2-8-0-2-4-4-5-8-6-2"
         cx="29.491253"
         cy="48.42033"
         rx="0.46809256"
         ry="0.44865656" />
      <ellipse
         style="fill:#edca33;fill-opacity:1;stroke:none;stroke-width:0.2;stroke-opacity:0.923077"
         id="path856-2-8-3-2-8-0-2-4-4-5-8-6-2-9"
         cx="30.319658"
         cy="48.793114"
         rx="0.46809256"
         ry="0.44865656" />
      <ellipse
         style="fill:#edca33;fill-opacity:1;stroke:none;stroke-width:0.2;stroke-opacity:0.923077"
         id="path856-2-8-3-2-8-0-2-4-4-5-8-6-2-9-2"
         cx="31.272326"
         cy="48.62743"
         rx="0.46809256"
         ry="0.44865656" />
      <ellipse
         style="fill:#edca33;fill-opacity:1;stroke:none;stroke-width:0.2;stroke-opacity:0.923077"
         id="path856-2-8-3-2-8-0-2-4-4-5-8-6-2-9-2-0"
         cx="32.142151"
         cy="48.171806"
         rx="0.46809256"
         ry="0.44865656" />
      <ellipse
         style="fill:#edca33;fill-opacity:1;stroke:none;stroke-width:0.2;stroke-opacity:0.923077"
         id="path856-2-8-3-2-8-0-2-4-4-5-8-6-2-9-2-0-1"
         cx="33.053398"
         cy="47.840446"
         rx="0.46809256"
         ry="0.44865656" />
      <ellipse
         style="fill:#edca33;fill-opacity:1;stroke:none;stroke-width:0.2;stroke-opacity:0.923077"
         id="path856-2-8-3-2-8-0-2-4-4-5-8-6-2-9-2-0-1-8"
         cx="33.923225"
         cy="47.467663"
         rx="0.46809256"
         ry="0.44865656" />
      <ellipse
         style="fill:#edca33;fill-opacity:1;stroke:none;stroke-width:0.2;stroke-opacity:0.923077"
         id="path856-2-8-3-2-8-0-2-4-4-5-8-6-2-9-2-0-1-8-7"
         cx="34.751633"
         cy="47.136299"
         rx="0.46809256"
         ry="0.44865656" />
      <ellipse
         style="fill:#edca33;fill-opacity:1;stroke:none;stroke-width:0.2;stroke-opacity:0.923077"
         id="path856-2-8-3-2-8-0-2-4-4-5-8-6-2-9-2-0-1-8-7-0"
         cx="35.414356"
         cy="46.680676"
         rx="0.46809256"
         ry="0.44865656" />
      <ellipse
         style="fill:#edca33;fill-opacity:1;stroke:none;stroke-width:0.2;stroke-opacity:0.923077"
         id="path856-2-8-3-2-8-0-2-4-4-5-8-6-2-9-2-0-1-8-7-0-0"
         cx="36.1185"
         cy="46.100792"
         rx="0.46809256"
         ry="0.44865656" />
      <ellipse
         style="fill:#edca33;fill-opacity:1;stroke:none;stroke-width:0.2;stroke-opacity:0.923077"
         id="path856-2-8-3-2-8-0-2-4-4-5-8-6-2-9-2-0-1-8-7-0-0-1"
         cx="36.905487"
         cy="45.520908"
         rx="0.46809256"
         ry="0.44865656" />
      <ellipse
         style="fill:#edca33;fill-opacity:1;stroke:none;stroke-width:0.2;stroke-opacity:0.923077"
         id="path856-2-8-3-2-8-0-2-4-4-5-8-6-2-9-2-0-1-8-7-0-0-1-7"
         cx="37.651051"
         cy="44.941025"
         rx="0.46809256"
         ry="0.44865656" />
      <ellipse
         style="fill:#edca33;fill-opacity:1;stroke:none;stroke-width:0.2;stroke-opacity:0.923077"
         id="path856-2-8-3-2-8-0-2-4-4-5-8-6-2-9-2-0-1-8-7-0-0-1-7-4"
         cx="38.438038"
         cy="44.361141"
         rx="0.46809256"
         ry="0.44865656" />
      <ellipse
         style="fill:#edca33;fill-opacity:1;stroke:none;stroke-width:0.2;stroke-opacity:0.923077"
         id="path856-2-8-3-2-8-0-2-4-4-5-8-6-2-9-2-0-1-8-7-0-0-1-7-4-4"
         cx="39.142185"
         cy="43.781258"
         rx="0.46809256"
         ry="0.44865656" />
      <ellipse
         style="fill:#edca33;fill-opacity:1;stroke:none;stroke-width:0.2;stroke-opacity:0.923077"
         id="path856-2-8-3-2-8-0-2-4-4-5-8-6-2-9-2-0-1-8-7-0-0-1-7-4-4-5"
         cx="39.763485"
         cy="43.20137"
         rx="0.46809256"
         ry="0.44865656" />
      <ellipse
         style="fill:#edca33;fill-opacity:1;stroke:none;stroke-width:0.2;stroke-opacity:0.923077"
         id="path856-2-8-3-2-8-0-2-4-4-5-8-6-2-9-2-0-1-8-7-0-0-1-7-4-4-5-9"
         cx="40.426212"
         cy="42.621487"
         rx="0.46809256"
         ry="0.44865656" />
      <ellipse
         style="fill:#edca33;fill-opacity:1;stroke:none;stroke-width:0.2;stroke-opacity:0.923077"
         id="path856-2-8-3-2-8-0-2-4-4-5-8-6-2-9-2-0-1-8-7-0-0-1-7-4-4-5-9-5"
         cx="41.171776"
         cy="42.000183"
         rx="0.46809256"
         ry="0.44865656" />
      <ellipse
         style="fill:#edca33;fill-opacity:1;stroke:none;stroke-width:0.2;stroke-opacity:0.923077"
         id="path856-2-8-3-2-8-0-2-4-4-5-8-6-2-9-2-0-1-8-7-0-0-1-7-4-4-5-9-5-5"
         cx="41.875923"
         cy="41.37888"
         rx="0.46809256"
         ry="0.44865656" />
      <ellipse
         style="fill:#edca33;fill-opacity:1;stroke:none;stroke-width:0.2;stroke-opacity:0.923077"
         id="path856-2-8-3-2-8-0-2-4-4-5-8-6-2-9-2-0-1-8-7-0-0-1-7-4-4-5-9-5-5-8"
         cx="42.621487"
         cy="40.798996"
         rx="0.46809256"
         ry="0.44865656" />
      <ellipse
         style="fill:#edca33;fill-opacity:1;stroke:none;stroke-width:0.2;stroke-opacity:0.923077"
         id="path856-2-8-3-2-8-0-2-4-4-5-8-6-2-9-2-0-1-8-7-0-0-1-7-4-4-5-9-5-5-8-9"
         cx="43.201374"
         cy="40.136269"
         rx="0.46809256"
         ry="0.44865656" />
      <ellipse
         style="fill:#edca33;fill-opacity:1;stroke:none;stroke-width:0.2;stroke-opacity:0.923077"
         id="path856-2-8-3-2-8-0-2-4-4-5-8-6-2-9-2-0-1-8-7-0-0-1-7-4-4-5-9-5-5-8-9-3"
         cx="43.864094"
         cy="39.514965"
         rx="0.46809256"
         ry="0.44865656" />
      <ellipse
         style="fill:#edca33;fill-opacity:1;stroke:none;stroke-width:0.2;stroke-opacity:0.923077"
         id="path856-2-8-3-2-8-0-2-4-4-5-8-6-2-9-2-0-1-8-7-0-0-1-7-4-4-5-9-5-5-8-9-3-2"
         cx="44.485397"
         cy="38.893661"
         rx="0.46809256"
         ry="0.44865656" />
      <ellipse
         style="fill:#edca33;fill-opacity:1;stroke:none;stroke-width:0.2;stroke-opacity:0.923077"
         id="path856-2-8-3-2-8-0-2-4-4-5-8-6-2-9-2-0-1-8-7-0-0-1-7-4-4-5-9-5-5-8-9-3-2-1"
         cx="44.941025"
         cy="38.272358"
         rx="0.46809256"
         ry="0.44865656" />
      <ellipse
         style="fill:#edca33;fill-opacity:1;stroke:none;stroke-width:0.2;stroke-opacity:0.923077"
         id="path856-2-8-3-2-8-0-2-4-4-5-8-6-2-9-2-0-1-8-7-0-0-1-7-4-4-5-9-5-5-8-9-3-2-1-2"
         cx="45.438068"
         cy="37.526791"
         rx="0.46809256"
         ry="0.44865656" />
      <ellipse
         style="fill:#edca33;fill-opacity:1;stroke:none;stroke-width:0.2;stroke-opacity:0.923077"
         id="path856-2-8-3-2-8-0-2-4-4-5-8-6-2-9-2-0-1-8-7-0-0-1-7-4-4-5-9-5-5-8-9-3-2-1-2-4"
         cx="45.935112"
         cy="36.822647"
         rx="0.46809256"
         ry="0.44865656" />
      <ellipse
         style="fill:#edca33;fill-opacity:1;stroke:none;stroke-width:0.2;stroke-opacity:0.923077"
         id="path856-2-8-3-2-8-0-2-4-4-5-8-6-2-9-2-0-1-8-7-0-0-1-7-4-4-5-9-5-5-8-9-3-2-1-2-4-3"
         cx="46.100792"
         cy="36.20134"
         rx="0.46809256"
         ry="0.44865656" />
      <ellipse
         style="fill:#edca33;fill-opacity:1;stroke:none;stroke-width:0.2;stroke-opacity:0.923077"
         id="path856-2-8-3-2-8-0-2-4-4-5-8-6-2-9-2-0-1-8-7-0-0-1-7-4-4-5-9-5-5-8-9-3-2-1-2-4-3-6"
         cx="45.810848"
         cy="35.538616"
         rx="0.46809256"
         ry="0.44865656" />
    </g>
    <path
       style="fill:#ffffff;fill-opacity:1;stroke:#000000;stroke-width:0.264583px;stroke-linecap:butt;stroke-linejoin:miter;stroke-opacity:1"
       d="m 54.672176,46.055449 -1.581917,-0.29295 h -1.933453 l -2.038295,0.06513 -2.353667,0.63066 -1.990431,0.533334 -1.351428,0.469977 -1.464739,0.937432 -0.996021,0.761664 -1.171792,1.230381 -0.644485,0.878843 -0.351536,0.878843 v 0.468717 0.468714 h 0.527304 l 14.311702,0.08039 0.863363,-0.307022 0.237616,-0.917383 z"
       id="path1708"
       sodipodi:nodetypes="ccccccccccccccccccc" />
    <path
       style="fill:#b81a4c;fill-opacity:1;stroke:#000000;stroke-width:0.264583px;stroke-linecap:butt;stroke-linejoin:miter;stroke-opacity:1"
       d="m 54.734832,47.910226 c -1.288968,-0.292947 -2.40217,-0.644483 -2.812298,-0.05859 -0.410125,0.585896 0.420018,0.02588 -1.1132,-0.527304 -1.533218,-0.553183 -2.102906,0.681138 -2.102906,0.681138 v 0 l -0.94375,0.725012 c 0,0 1.5249,0.06037 0,0 -1.5249,-0.06037 -3.105245,0.468714 -3.105245,0.468714 0,0 0.175768,-0.468714 -0.117181,0.29295 -0.292947,0.761664 -0.820254,0.996021 -1.17179,1.523328 -0.351538,0.527304 -0.878842,0.527304 -1.34756,0.703074 -0.468717,0.175768 -0.937432,0.761664 -0.937432,0.761664 l 0.234358,0.585893 12.190742,-0.08058 0.800242,-0.259227 0.482181,-1.033608 z"
       id="path1712"
       sodipodi:nodetypes="csscccscssscccccc" />
    <path
       style="fill:#b88f4c;fill-opacity:1;stroke:#000000;stroke-width:0.264583px;stroke-linecap:butt;stroke-linejoin:miter;stroke-opacity:1"
       d="m 51.734566,50.562777 1.699098,-0.410128 -0.23436,-0.703075 c 0,0 0.29295,-0.527304 -0.410125,-0.644485 -0.703074,-0.117179 -1.34756,-0.703072 -1.581917,-0.117179 -0.23436,0.585896 -0.175768,0.761664 0.117179,1.230381 0.292946,0.468718 0.410125,0.644486 0.410125,0.644486 z"
       id="path1714" />
    <path
       style="fill:#b88f4c;fill-opacity:1;stroke:#000000;stroke-width:0.264583px;stroke-linecap:butt;stroke-linejoin:miter;stroke-opacity:1"
       d="m 43.883569,52.906358 0.234357,-0.820253 c 0,0 -0.410125,0.05859 0.175768,-0.468718 0.585896,-0.527304 0.175771,-1.34756 0.996024,-0.527304 0.820253,0.820254 0.761664,1.347558 0.761664,1.347558 l -0.175771,0.527306 -0.585893,0.175768 z"
       id="path1716" />
    <path
       style="fill:#ffffff;fill-opacity:1;stroke:#000000;stroke-width:0.264583px;stroke-linecap:butt;stroke-linejoin:miter;stroke-opacity:1"
       d="m 50.482999,51.060201 -1.198805,-0.488402 -0.4884,-0.355201 -0.133202,-0.532802 -0.488402,-0.0444 -0.710401,0.3108 v 0.310801 l -0.0888,0.355203 h -0.799203 l -0.266401,0.355201 0.888005,0.3996 0.799203,-0.133199 0.799203,0.222001 0.532802,0.310801 0.532802,0.177601 z"
       id="path1718" />
    <path
       style="fill:#9e542a;fill-opacity:1;stroke:#000000;stroke-width:0.264583px;stroke-linecap:butt;stroke-linejoin:miter;stroke-opacity:1"
       d="m 50.608312,51.060201 v 0 l 1.251567,-0.497424 1.699098,-0.410128 v 0 l 0.956551,0.685551 0.113374,1.110826 -0.194776,0.597193 c -0.478403,0.244523 -0.62618,0.444317 -0.925298,0.547105 l -2.589715,-0.03511 h -0.621601 l -0.310798,-1.110006 z"
       id="path1720"
       sodipodi:nodetypes="ccccccccccccc" />
  </g>
</svg>
